# xmcd CD database file generated by OrangeCD 6.1
#
# Track frame offsets:
#	150
#	11395
#	21347
#	35189
#	45862
#	56267
#	65540
#	76351
#	87016
#	98601
#	109849
#	120229
#	131731
#	143210
#	153558
#	165889
#	177753
#	190353
#	201445
#	212466
#	221390
#	231745
#	246106
#
# Disc length: 3417 seconds
#
# Revision: 2
# Processed by: cddbd v1.5.2PL0 Copyright (c) Steve Scherf et al.
# Submitted via: OrangeCD 6.1
#
DISCID=330d5717
DTITLE=Patsy Cline - 50 Golden Greats: The Complete Early Years
DYEAR=2006
DGENRE=Country
TTITLE0=Hidin' Out
TTITLE1=Turn The Cards Slowly
TTITLE2=A Church, A Courtroom, And Then Goodbye
TTITLE3=Honky Tonk Merry - Go - Round
TTITLE4=I Love You Honey
TTITLE5=Come On In
TTITLE6=I Cried All The Way To The Altar
TTITLE7=Stop, Look And Listen
TTITLE8=I've Loved And Lost Again
TTITLE9=Dear God
TTITLE10=He Will Do For You
TTITLE11=Walkin' After Midnight
TTITLE12=The Heart You Break May Be Your Own
TTITLE13=Pick Me Up On Your Way Down
TTITLE14=A Poor Man's Roses
TTITLE15=Today, Tomorrow And Forever
TTITLE16=Fingerprints
TTITLE17=A Stranger In My Arms
TTITLE18=Don't Ever Leave Me
TTITLE19=Try Again
TTITLE20=Too Many Secrets
TTITLE21=Then You'll Know
TTITLE22=Three Cigarettes In An Ashtray
EXTD=
EXTT0=
EXTT1=
EXTT2=
EXTT3=
EXTT4=
EXTT5=
EXTT6=
EXTT7=
EXTT8=
EXTT9=
EXTT10=
EXTT11=
EXTT12=
EXTT13=
EXTT14=
EXTT15=
EXTT16=
EXTT17=
EXTT18=
EXTT19=
EXTT20=
EXTT21=
EXTT22=
PLAYORDER=
